# xmcd
#
# Track frame offsets:
# 150
# 11700
# 22180
# 32505
# 43845
# 55497
# 69080
# 78890
# 96630
# 122760
# 137942
# 149495
#
# Disc length: 2045 seconds
#
# Revision: 0
# Processed by: cddbd v1.5.1PL2 Copyright (c) Steve Scherf et al.
# Submitted via: Audion 3.0.2 (http://www.panic.com/audion/)
#
DISCID=ad07fb0c
DTITLE=Mestre Barrao - Axe Capoeira Collaboration
DYEAR=1900
DGENRE=
TTITLE0=Guerreiro Do Quilombo
TTITLE1=Lampio e Maria Bonita
TTITLE2=E Bahia Capoeira Berimbau/Adao Adao
TTITLE3=Nego Mandigueiro
TTITLE4=E Besouro/Quando Eu Entrar
TTITLE5=O Areia/E Parana/Pimenta Madura
TTITLE6=Tum Tum Tum/Bimba Mando
TTITLE7=Farol Da Bahia Apagou/Pernada Do Crioulo
TTITLE8=Venceu O Capoeira
TTITLE9=Nao Me Peca Amor
TTITLE10=Nascimento Grande
TTITLE11=Homenagem Aos Mestre
EXTD=
EXTT0=
EXTT1=
EXTT2=
EXTT3=
EXTT4=
EXTT5=
EXTT6=
EXTT7=
EXTT8=
EXTT9=
EXTT10=
EXTT11=
PLAYORDER=
